<svg width="533" height="530" viewBox="0 0 533 530" fill="none" xmlns="http://www.w3.org/2000/svg">
<g filter="url(#filter0_d_1819_83)">
<path d="M268.446 14.5356L95.51 82.8114L24.5391 263.383L95.51 434.073L268.446 506.84L451.263 434.073L519.539 263.383L451.263 82.8114L268.446 14.5356Z" fill="#E40A0A" stroke="white"/>
<path d="M268.654 28.9095L105.762 93.1984L38.9131 263.226L105.762 423.948L268.654 492.467L440.855 423.948L505.165 263.226L440.855 93.1984L268.654 28.9095Z" fill="#E40A0A" stroke="white" stroke-width="9"/>
<path d="M375.765 106.169C384.329 106.169 391.375 112.914 391.749 121.471L393.755 167.384H424.201C427.515 167.384 430.201 170.07 430.201 173.384V234.584C430.201 235.688 429.305 236.584 428.201 236.584H405.586C404.481 236.584 403.586 235.688 403.586 234.584V188.678L403.585 188.676C402.675 185.943 404.296 181.393 398.115 180.691H394.336L402.875 376.133C402.974 378.408 401.156 380.307 398.879 380.307H389.749V407.907C389.749 411.773 386.615 414.907 382.749 414.907H354.164C350.298 414.907 347.164 411.773 347.164 407.907V380.307H198.119V407.907C198.119 411.773 194.985 414.907 191.119 414.907H162.534C158.668 414.907 155.534 411.773 155.534 407.907V380.307H143.765C141.48 380.306 139.659 378.396 139.77 376.113L149.256 180.691H145.563C139.383 181.393 141.004 185.943 140.094 188.676V234.584C140.094 235.688 139.198 236.584 138.094 236.584H115.478C114.373 236.584 113.478 235.688 113.478 234.584V173.384C113.478 170.07 116.164 167.384 119.478 167.384H149.901L152.134 121.394C152.548 112.869 159.58 106.169 168.115 106.169H375.765ZM175.496 305.784C167.412 305.784 160.857 312.338 160.857 320.423C160.858 328.507 167.412 335.06 175.496 335.061C183.58 335.06 190.134 328.507 190.134 320.423C190.134 312.338 183.581 305.784 175.496 305.784ZM369.788 305.784C361.704 305.784 355.149 312.338 355.149 320.423C355.15 328.507 361.704 335.06 369.788 335.061C377.873 335.061 384.427 328.507 384.427 320.423C384.427 312.338 377.873 305.784 369.788 305.784ZM158.196 265.861H384.427V166.054H163.52L158.196 265.861ZM222.601 146.092H323.738V127.461H222.601V146.092Z" fill="white"/>
</g>
<defs>
<filter id="filter0_d_1819_83" x="0" y="0" width="532.076" height="529.381" filterUnits="userSpaceOnUse" color-interpolation-filters="sRGB">
<feFlood flood-opacity="0" result="BackgroundImageFix"/>
<feColorMatrix in="SourceAlpha" type="matrix" values="0 0 0 0 0 0 0 0 0 0 0 0 0 0 0 0 0 0 127 0" result="hardAlpha"/>
<feOffset dx="-6" dy="4"/>
<feGaussianBlur stdDeviation="9"/>
<feComposite in2="hardAlpha" operator="out"/>
<feColorMatrix type="matrix" values="0 0 0 0 0 0 0 0 0 0 0 0 0 0 0 0 0 0 0.25 0"/>
<feBlend mode="normal" in2="BackgroundImageFix" result="effect1_dropShadow_1819_83"/>
<feBlend mode="normal" in="SourceGraphic" in2="effect1_dropShadow_1819_83" result="shape"/>
</filter>
</defs>
</svg>
