<svg width="602" height="334" viewBox="0 0 602 334" fill="none" xmlns="http://www.w3.org/2000/svg">
<g filter="url(#filter0_d_1818_48)">
<path d="M568.586 10C582.946 10.0001 594.586 21.6406 594.586 36V237C594.586 251.359 582.946 263 568.586 263H529.524C523.158 291.056 498.069 312 468.086 312C438.104 312 413.015 291.056 406.649 263H241.524C235.158 291.056 210.068 312 180.086 312C150.104 312 125.015 291.056 118.649 263H51.0014C35.9158 263 23.9965 250.203 25.0668 235.155L35.0717 94.542C38.4605 46.9104 78.0903 10 125.842 10H568.586ZM176.086 212C155.652 212 139.086 228.565 139.086 249C139.086 269.435 155.652 286 176.086 286C196.521 286 213.086 269.435 213.086 249C213.086 228.565 196.521 212 176.086 212ZM467.086 212C446.652 212 430.086 228.565 430.086 249C430.086 269.435 446.652 286 467.086 286C487.521 286 504.086 269.434 504.086 249C504.086 228.566 487.521 212 467.086 212ZM123.454 39C94.1826 39.0002 70.4536 62.729 70.4536 92V116L69.0874 188.869C69.0141 192.785 72.1345 195.43 75.6235 193.649C86.9578 187.864 108.771 171.735 132.454 149C158.186 124.296 182.816 116.957 195.297 116H200.454V39H123.454ZM227.454 111H320.454V39H227.454V111ZM350.454 111H443.454V39H350.454V111ZM470.454 111H566.454C570.32 111 573.454 107.866 573.454 104V58C573.454 47.5066 564.947 39 554.454 39H470.454V111Z" fill="#160443"/>
</g>
<defs>
<filter id="filter0_d_1818_48" x="0" y="0" width="601.586" height="334" filterUnits="userSpaceOnUse" color-interpolation-filters="sRGB">
<feFlood flood-opacity="0" result="BackgroundImageFix"/>
<feColorMatrix in="SourceAlpha" type="matrix" values="0 0 0 0 0 0 0 0 0 0 0 0 0 0 0 0 0 0 127 0" result="hardAlpha"/>
<feOffset dx="-9" dy="6"/>
<feGaussianBlur stdDeviation="8"/>
<feComposite in2="hardAlpha" operator="out"/>
<feColorMatrix type="matrix" values="0 0 0 0 0 0 0 0 0 0 0 0 0 0 0 0 0 0 0.25 0"/>
<feBlend mode="normal" in2="BackgroundImageFix" result="effect1_dropShadow_1818_48"/>
<feBlend mode="normal" in="SourceGraphic" in2="effect1_dropShadow_1818_48" result="shape"/>
</filter>
</defs>
</svg>
