<svg width="369" height="205" viewBox="0 0 369 205" fill="none" xmlns="http://www.w3.org/2000/svg">
<path d="M203.239 1.20905L221.374 63.5581H222.065L240.2 1.20905H267.315L239.487 85.5184C238.675 87.9769 236.378 89.6377 233.789 89.6377H209.65C207.061 89.6377 204.763 87.977 203.952 85.5184L176.123 1.20905H203.239Z" fill="url(#paint0_linear_186_49)"/>
<path d="M173.532 45.4233C173.532 55.2679 171.618 63.5725 167.789 70.337C163.961 77.0728 158.794 82.1822 152.288 85.6653C145.783 89.1195 138.529 90.8466 130.527 90.8466C122.467 90.8466 115.184 89.1051 108.678 85.6221C102.202 82.1103 97.0492 76.9865 93.2207 70.2507C89.4211 63.4861 87.5212 55.2103 87.5212 45.4233C87.5212 35.5787 89.4211 27.2885 93.2207 20.5528C97.0492 13.7882 102.202 8.67879 108.678 5.22454C115.184 1.74151 122.467 0 130.527 0C138.529 0 145.783 1.74151 152.288 5.22454C158.794 8.67879 163.961 13.7882 167.789 20.5528C171.618 27.2885 173.532 35.5787 173.532 45.4233ZM148.834 45.4233C148.834 40.1268 148.129 35.6651 146.718 32.0381C145.337 28.3824 143.278 25.619 140.544 23.7479C137.838 21.8481 134.499 20.8982 130.527 20.8982C126.554 20.8982 123.201 21.8481 120.466 23.7479C117.76 25.619 115.702 28.3824 114.292 32.0381C112.91 35.6651 112.219 40.1268 112.219 45.4233C112.219 50.7198 112.91 55.1959 114.292 58.8517C115.702 62.4786 117.76 65.242 120.466 67.1419C123.201 69.0129 126.554 69.9484 130.527 69.9484C134.499 69.9484 137.838 69.0129 140.544 67.1419C143.278 65.242 145.337 62.4786 146.718 58.8517C148.129 55.1959 148.834 50.7198 148.834 45.4233Z" fill="url(#paint1_linear_186_49)"/>
<path d="M76.5115 1.20905V89.6377H62.788C58.8372 89.6377 55.1394 87.6929 52.9006 84.4376L24.5251 43.1781H24.007V89.6377H0V1.20905H14.0238C17.9996 1.20905 21.7174 3.17829 23.951 6.46741L51.8137 47.4959H52.5045V1.20905H76.5115Z" fill="url(#paint2_linear_186_49)"/>
<path d="M314.104 1.20892C316.692 1.20904 318.989 2.86973 319.801 5.32806L334.154 48.8134C326.802 50.1735 319.073 52.4608 310.816 56.3007L302.379 27.289H301.688L283.554 89.6376H256.438L284.267 5.32806C285.078 2.8697 287.375 1.20892 289.964 1.20892H314.104ZM347.63 89.6376H320.514L314.683 69.5917C321.343 65.8374 328.962 62.1668 337.473 58.8681L347.63 89.6376Z" fill="url(#paint3_linear_186_49)"/>
<path d="M368.438 47.8466C327.438 56.3466 295.104 77.0293 283.438 89.3627L289.438 70.3466C319.838 48.7466 346.438 47.8466 368.438 47.8466Z" fill="url(#paint4_linear_186_49)"/>
<path d="M297.673 114.444C297.563 113.421 297.102 112.624 296.29 112.054C295.485 111.483 294.438 111.198 293.149 111.198C292.243 111.198 291.466 111.335 290.817 111.608C290.169 111.882 289.673 112.253 289.329 112.722C288.985 113.19 288.809 113.726 288.802 114.327C288.802 114.827 288.915 115.261 289.141 115.628C289.376 115.995 289.692 116.308 290.091 116.565C290.489 116.815 290.93 117.026 291.415 117.198C291.899 117.37 292.387 117.515 292.88 117.632L295.13 118.194C296.036 118.405 296.907 118.69 297.743 119.05C298.587 119.409 299.341 119.862 300.005 120.409C300.677 120.956 301.208 121.616 301.598 122.39C301.989 123.163 302.184 124.069 302.184 125.108C302.184 126.515 301.825 127.753 301.106 128.823C300.387 129.886 299.348 130.718 297.989 131.319C296.637 131.913 295.001 132.21 293.079 132.21C291.212 132.21 289.591 131.921 288.216 131.343C286.848 130.765 285.778 129.921 285.005 128.811C284.239 127.702 283.825 126.351 283.762 124.757H288.04C288.102 125.593 288.36 126.288 288.813 126.843C289.266 127.397 289.856 127.811 290.583 128.085C291.317 128.358 292.137 128.495 293.044 128.495C293.989 128.495 294.817 128.354 295.528 128.073C296.247 127.784 296.809 127.386 297.216 126.878C297.622 126.362 297.829 125.761 297.837 125.073C297.829 124.448 297.645 123.933 297.286 123.526C296.927 123.112 296.423 122.768 295.774 122.495C295.134 122.214 294.384 121.964 293.524 121.745L290.794 121.042C288.817 120.534 287.255 119.765 286.106 118.733C284.966 117.694 284.395 116.315 284.395 114.597C284.395 113.183 284.778 111.944 285.544 110.882C286.317 109.819 287.368 108.995 288.696 108.409C290.024 107.815 291.528 107.518 293.208 107.518C294.911 107.518 296.403 107.815 297.684 108.409C298.973 108.995 299.985 109.811 300.719 110.858C301.454 111.897 301.833 113.093 301.856 114.444H297.673Z" fill="#F37021"/>
<path d="M256.772 114.444C256.663 113.421 256.202 112.624 255.389 112.054C254.584 111.483 253.538 111.198 252.249 111.198C251.342 111.198 250.565 111.335 249.917 111.608C249.268 111.882 248.772 112.253 248.428 112.722C248.084 113.19 247.909 113.726 247.901 114.327C247.901 114.827 248.014 115.261 248.241 115.628C248.475 115.995 248.792 116.308 249.19 116.565C249.588 116.815 250.03 117.026 250.514 117.198C250.999 117.37 251.487 117.515 251.979 117.632L254.229 118.194C255.135 118.405 256.006 118.69 256.842 119.05C257.686 119.409 258.44 119.862 259.104 120.409C259.776 120.956 260.307 121.616 260.698 122.39C261.088 123.163 261.284 124.069 261.284 125.108C261.284 126.515 260.924 127.753 260.206 128.823C259.487 129.886 258.448 130.718 257.088 131.319C255.737 131.913 254.1 132.21 252.178 132.21C250.311 132.21 248.69 131.921 247.315 131.343C245.948 130.765 244.877 129.921 244.104 128.811C243.338 127.702 242.924 126.351 242.862 124.757H247.139C247.202 125.593 247.459 126.288 247.913 126.843C248.366 127.397 248.956 127.811 249.682 128.085C250.417 128.358 251.237 128.495 252.143 128.495C253.088 128.495 253.917 128.354 254.627 128.073C255.346 127.784 255.909 127.386 256.315 126.878C256.721 126.362 256.928 125.761 256.936 125.073C256.928 124.448 256.745 123.933 256.385 123.526C256.026 123.112 255.522 122.768 254.874 122.495C254.233 122.214 253.483 121.964 252.624 121.745L249.893 121.042C247.917 120.534 246.354 119.765 245.206 118.733C244.065 117.694 243.495 116.315 243.495 114.597C243.495 113.183 243.877 111.944 244.643 110.882C245.417 109.819 246.467 108.995 247.795 108.409C249.124 107.815 250.627 107.518 252.307 107.518C254.01 107.518 255.502 107.815 256.784 108.409C258.073 108.995 259.084 109.811 259.819 110.858C260.553 111.897 260.932 113.093 260.956 114.444H256.772Z" fill="#F37021"/>
<path d="M204.214 131.847V107.847H219.823V111.491H208.562V118.007H219.015V121.651H208.562V128.202H219.917V131.847H204.214Z" fill="#F37021"/>
<path d="M163.281 131.847V107.847H172.281C174.125 107.847 175.672 108.167 176.922 108.808C178.179 109.448 179.129 110.347 179.769 111.503C180.418 112.651 180.742 113.991 180.742 115.522C180.742 117.061 180.414 118.397 179.758 119.53C179.109 120.655 178.152 121.526 176.886 122.143C175.621 122.753 174.066 123.058 172.222 123.058H165.812V119.448H171.636C172.715 119.448 173.597 119.3 174.285 119.003C174.972 118.698 175.48 118.257 175.808 117.679C176.144 117.093 176.312 116.374 176.312 115.522C176.312 114.671 176.144 113.944 175.808 113.343C175.472 112.733 174.961 112.272 174.273 111.96C173.586 111.64 172.699 111.479 171.613 111.479H167.629V131.847H163.281ZM175.679 120.972L181.621 131.847H176.769L170.933 120.972H175.679Z" fill="#F37021"/>
<path d="M122.574 131.847V107.847H131.574C133.417 107.847 134.964 108.19 136.214 108.878C137.472 109.565 138.421 110.511 139.062 111.714C139.71 112.909 140.035 114.268 140.035 115.792C140.035 117.331 139.71 118.698 139.062 119.893C138.414 121.089 137.457 122.03 136.191 122.718C134.925 123.397 133.367 123.737 131.515 123.737H125.55V120.163H130.929C132.007 120.163 132.89 119.976 133.578 119.601C134.265 119.226 134.773 118.71 135.101 118.054C135.437 117.397 135.605 116.643 135.605 115.792C135.605 114.94 135.437 114.19 135.101 113.542C134.773 112.893 134.261 112.39 133.566 112.03C132.878 111.663 131.992 111.479 130.906 111.479H126.921V131.847H122.574Z" fill="#F37021"/>
<path d="M83.9524 107.847L89.2375 116.636H89.425L94.7336 107.847H99.6907L92.2961 119.847L99.8079 131.847H94.7688L89.425 123.116H89.2375L83.8938 131.847H78.8782L86.4602 119.847L78.9719 107.847H83.9524Z" fill="#F37021"/>
<path d="M40.8047 131.847V107.847H56.4141V111.491H45.1523V118.007H55.6055V121.651H45.1523V128.202H56.5078V131.847H40.8047Z" fill="#F37021"/>
<path d="M0.4375 116.847H26.4375V122.847H0.4375V116.847Z" fill="#F37021"/>
<path d="M320.438 116.847H346.438V122.847H320.438V116.847Z" fill="#F37021"/>
<path d="M0.4375 196.847C0.4375 173.651 19.2415 154.847 42.4375 154.847H360.438V162.847C360.438 186.043 341.633 204.847 318.437 204.847H0.4375V196.847Z" fill="url(#paint5_linear_186_49)"/>
<path d="M293.335 192.847V168.119H309.997V172.43H298.563V178.322H309.139V182.632H298.563V188.536H310.045V192.847H293.335Z" fill="white"/>
<path d="M260.957 192.847V168.119H277.618V172.43H266.185V178.322H276.761V182.632H266.185V188.536H277.667V192.847H260.957Z" fill="white"/>
<path d="M223.311 168.119H229.167L234.805 178.768H235.047L240.685 168.119H246.541L237.522 184.105V192.847H232.33V184.105L223.311 168.119Z" fill="white"/>
<path d="M210.821 180.483C210.821 183.179 210.31 185.473 209.288 187.365C208.274 189.257 206.889 190.701 205.134 191.7C203.388 192.69 201.424 193.185 199.242 193.185C197.045 193.185 195.073 192.686 193.326 191.688C191.58 190.689 190.199 189.245 189.185 187.353C188.171 185.461 187.664 183.171 187.664 180.483C187.664 177.786 188.171 175.492 189.185 173.601C190.199 171.709 191.58 170.268 193.326 169.278C195.073 168.28 197.045 167.781 199.242 167.781C201.424 167.781 203.388 168.28 205.134 169.278C206.889 170.268 208.274 171.709 209.288 173.601C210.31 175.492 210.821 177.786 210.821 180.483ZM205.521 180.483C205.521 178.736 205.259 177.263 204.736 176.064C204.221 174.865 203.492 173.955 202.551 173.335C201.609 172.715 200.506 172.406 199.242 172.406C197.979 172.406 196.876 172.715 195.934 173.335C194.992 173.955 194.26 174.865 193.737 176.064C193.222 177.263 192.964 178.736 192.964 180.483C192.964 182.23 193.222 183.703 193.737 184.902C194.26 186.101 194.992 187.011 195.934 187.631C196.876 188.25 197.979 188.56 199.242 188.56C200.506 188.56 201.609 188.25 202.551 187.631C203.492 187.011 204.221 186.101 204.736 184.902C205.259 183.703 205.521 182.23 205.521 180.483Z" fill="white"/>
<path d="M158.21 192.847V168.119H163.438V188.536H174.039V192.847H158.21Z" fill="white"/>
<path d="M124.636 192.847V168.119H134.392C136.267 168.119 137.865 168.478 139.185 169.194C140.505 169.902 141.511 170.888 142.204 172.152C142.904 173.408 143.254 174.857 143.254 176.499C143.254 178.141 142.9 179.589 142.192 180.845C141.483 182.101 140.457 183.079 139.113 183.779C137.777 184.479 136.159 184.83 134.259 184.83H128.041V180.64H133.414C134.42 180.64 135.249 180.467 135.901 180.121C136.561 179.767 137.052 179.28 137.374 178.66C137.704 178.032 137.869 177.312 137.869 176.499C137.869 175.678 137.704 174.961 137.374 174.349C137.052 173.73 136.561 173.251 135.901 172.913C135.241 172.567 134.404 172.393 133.39 172.393H129.864V192.847H124.636Z" fill="white"/>
<path d="M81.9651 168.119H88.4125L95.2222 184.733H95.512L102.322 168.119H108.769V192.847H103.698V176.752H103.493L97.0936 192.726H93.6405L87.2414 176.692H87.0361V192.847H81.9651V168.119Z" fill="white"/>
<path d="M49.5867 192.847V168.119H66.2486V172.43H54.8147V178.322H65.3914V182.632H54.8147V188.536H66.2969V192.847H49.5867Z" fill="white"/>
<defs>
<linearGradient id="paint0_linear_186_49" x1="221.719" y1="1.20905" x2="221.719" y2="89.6377" gradientUnits="userSpaceOnUse">
<stop stop-color="#0E3268"/>
<stop offset="0.211538" stop-color="#144986"/>
<stop offset="0.807692" stop-color="#144986"/>
<stop offset="1" stop-color="#1268B3"/>
</linearGradient>
<linearGradient id="paint1_linear_186_49" x1="130.527" y1="0" x2="130.527" y2="90.8466" gradientUnits="userSpaceOnUse">
<stop stop-color="#0E3268"/>
<stop offset="0.211538" stop-color="#144986"/>
<stop offset="0.807692" stop-color="#144986"/>
<stop offset="1" stop-color="#1268B3"/>
</linearGradient>
<linearGradient id="paint2_linear_186_49" x1="69.9375" y1="-33.6534" x2="38.2557" y2="89.6377" gradientUnits="userSpaceOnUse">
<stop stop-color="#0E3268"/>
<stop offset="0.211538" stop-color="#144986"/>
<stop offset="0.807692" stop-color="#144986"/>
<stop offset="1" stop-color="#1268B3"/>
</linearGradient>
<linearGradient id="paint3_linear_186_49" x1="302.034" y1="1.20892" x2="302.034" y2="89.6376" gradientUnits="userSpaceOnUse">
<stop stop-color="#0E3268"/>
<stop offset="0.211538" stop-color="#144986"/>
<stop offset="0.807692" stop-color="#144986"/>
<stop offset="1" stop-color="#1268B3"/>
</linearGradient>
<linearGradient id="paint4_linear_186_49" x1="306.437" y1="60.3466" x2="291.937" y2="81.8466" gradientUnits="userSpaceOnUse">
<stop stop-color="#F37021"/>
<stop offset="0.85331" stop-color="#F15A29"/>
</linearGradient>
<linearGradient id="paint5_linear_186_49" x1="0.4375" y1="179.847" x2="360.438" y2="179.847" gradientUnits="userSpaceOnUse">
<stop stop-color="#144986"/>
<stop offset="1" stop-color="#1268B3"/>
</linearGradient>
</defs>
</svg>
