<svg width="402" height="402" viewBox="0 0 402 402" fill="none" xmlns="http://www.w3.org/2000/svg">
<g filter="url(#filter0_d_1817_51)">
<circle cx="201" cy="197" r="197" fill="#FFB031"/>
<circle cx="201" cy="197" r="192" stroke="white" stroke-width="10"/>
</g>
<g filter="url(#filter1_d_1817_51)">
<path d="M196.36 106.009C201.286 102.974 207.339 101.743 213.458 103.023C225.466 105.536 233.508 116.879 231.905 129.042L220.772 213.501C220.466 215.823 221.848 217.997 223.87 219.18C225.334 220.036 226.738 221.077 228.055 222.313L249.387 242.346C251.247 244.092 252.58 246.194 253.379 248.449C253.528 248.869 253.712 249.276 253.943 249.656C256.605 254.031 258.427 258.963 259.204 264.222L267.522 320.497C268.958 330.212 261.893 339.122 252.106 339.939C243.035 340.697 234.974 334.179 233.815 325.15L226.09 264.967C225.928 263.709 225.295 262.56 224.318 261.752L197.427 239.493L196.484 238.764C195.218 237.782 194 236.754 192.828 235.688L190.38 233.662C190.308 233.603 190.276 233.507 190.3 233.417C190.321 233.335 190.298 233.247 190.238 233.187C176.661 219.242 170.565 199.388 174.328 179.939L180.91 145.917L171.344 152.796L171.35 152.801C170.296 154.556 169.33 156.988 168.695 158.903L168.707 158.913L159.357 200.849C158.226 205.922 154.336 209.664 149.619 210.854L142.931 241.083L141.173 240.693C144.658 244.267 146.283 249.499 145.021 254.708L129.569 318.512C129.348 319.427 129.044 320.302 128.673 321.132C126.513 317.455 122.52 314.984 117.947 314.984C111.082 314.985 105.516 320.551 105.516 327.416C105.516 327.653 105.522 327.89 105.535 328.124L89.5781 324.261C81.527 322.311 76.5806 314.203 78.5303 306.151L93.9824 242.347C95.9327 234.296 104.041 229.349 112.092 231.299L133.974 236.599C134.088 236.626 134.203 236.656 134.316 236.687L140.271 209.776C135.053 207.087 132.076 201.148 133.373 195.145L145.638 138.392L145.678 138.427C145.865 137.477 146.607 135.674 148.464 134.436L192.372 107.578C193.649 106.797 194.997 106.282 196.36 106.009ZM200.5 250L183.032 325.674C180.827 335.227 171.07 340.985 161.641 338.298C152.83 335.787 147.552 326.789 149.662 317.873L172 223.5L200.5 250ZM118.795 318.94C123.944 318.94 128.119 323.115 128.119 328.265C128.119 333.414 123.944 337.588 118.795 337.588C113.646 337.588 109.471 333.414 109.471 328.265C109.471 323.115 113.646 318.941 118.795 318.94ZM277.966 177.99C283.565 182.95 284.116 191.499 279.199 197.136C274.247 202.814 265.625 203.391 259.959 198.425L227.577 170.037L232.945 138.108L277.966 177.99ZM217.405 33C233.634 33.0001 246.79 46.156 246.79 62.3848C246.79 78.6137 233.634 91.7704 217.405 91.7705C201.176 91.7705 188.02 78.6138 188.02 62.3848C188.02 46.156 201.176 33 217.405 33Z" fill="white"/>
</g>
<defs>
<filter id="filter0_d_1817_51" x="0" y="0" width="402" height="402" filterUnits="userSpaceOnUse" color-interpolation-filters="sRGB">
<feFlood flood-opacity="0" result="BackgroundImageFix"/>
<feColorMatrix in="SourceAlpha" type="matrix" values="0 0 0 0 0 0 0 0 0 0 0 0 0 0 0 0 0 0 127 0" result="hardAlpha"/>
<feOffset dy="4"/>
<feGaussianBlur stdDeviation="2"/>
<feComposite in2="hardAlpha" operator="out"/>
<feColorMatrix type="matrix" values="0 0 0 0 0 0 0 0 0 0 0 0 0 0 0 0 0 0 0.25 0"/>
<feBlend mode="normal" in2="BackgroundImageFix" result="effect1_dropShadow_1817_51"/>
<feBlend mode="normal" in="SourceGraphic" in2="effect1_dropShadow_1817_51" result="shape"/>
</filter>
<filter id="filter1_d_1817_51" x="65.1055" y="28" width="217.449" height="318.999" filterUnits="userSpaceOnUse" color-interpolation-filters="sRGB">
<feFlood flood-opacity="0" result="BackgroundImageFix"/>
<feColorMatrix in="SourceAlpha" type="matrix" values="0 0 0 0 0 0 0 0 0 0 0 0 0 0 0 0 0 0 127 0" result="hardAlpha"/>
<feOffset dx="-7" dy="1"/>
<feGaussianBlur stdDeviation="3"/>
<feComposite in2="hardAlpha" operator="out"/>
<feColorMatrix type="matrix" values="0 0 0 0 0 0 0 0 0 0 0 0 0 0 0 0 0 0 0.23 0"/>
<feBlend mode="normal" in2="BackgroundImageFix" result="effect1_dropShadow_1817_51"/>
<feBlend mode="normal" in="SourceGraphic" in2="effect1_dropShadow_1817_51" result="shape"/>
</filter>
</defs>
</svg>
